<mxfile host="app.diagrams.net" agent="Mozilla/5.0 (Windows NT 10.0; Win64; x64) AppleWebKit/537.36 (KHTML, like Gecko) Chrome/137.0.0.0 Safari/537.36" version="27.1.3">
  <diagram name="Page-1" id="1SS9Qo6UurhLwdJVaZfy">
    <mxGraphModel dx="1423" dy="624" grid="1" gridSize="10" guides="1" tooltips="1" connect="1" arrows="1" fold="1" page="1" pageScale="1" pageWidth="850" pageHeight="1100" math="0" shadow="0">
      <root>
        <mxCell id="0" />
        <mxCell id="1" parent="0" />
        <mxCell id="w7ShJKdbrhDFuei-1GB7-1" value="KORISNIK (ŽUPLJANIN)" style="swimlane;whiteSpace=wrap;html=1;" vertex="1" parent="1">
          <mxGeometry x="280" y="60" width="200" height="260" as="geometry" />
        </mxCell>
        <mxCell id="w7ShJKdbrhDFuei-1GB7-2" value="&lt;div style=&quot;text-align: left;&quot;&gt;&lt;span style=&quot;font-size: 14px; background-color: transparent; color: light-dark(rgb(0, 0, 0), rgb(255, 255, 255));&quot;&gt;id: int&lt;/span&gt;&lt;/div&gt;&lt;div style=&quot;text-align: left;&quot;&gt;&lt;font style=&quot;font-size: 14px;&quot;&gt;ime: string&lt;/font&gt;&lt;/div&gt;&lt;div style=&quot;text-align: left;&quot;&gt;&lt;font style=&quot;font-size: 14px;&quot;&gt;prezime: string&lt;/font&gt;&lt;/div&gt;&lt;div style=&quot;text-align: left;&quot;&gt;&lt;font style=&quot;font-size: 14px;&quot;&gt;email: string&lt;/font&gt;&lt;/div&gt;&lt;div style=&quot;text-align: left;&quot;&gt;&lt;font style=&quot;font-size: 14px;&quot;&gt;telefon: string&lt;/font&gt;&lt;/div&gt;&lt;div style=&quot;text-align: left;&quot;&gt;&lt;font style=&quot;font-size: 14px;&quot;&gt;datumRodjenja: Date&lt;/font&gt;&lt;/div&gt;&lt;div&gt;&lt;font style=&quot;font-size: 14px;&quot;&gt;&lt;br&gt;&lt;/font&gt;&lt;/div&gt;" style="text;html=1;align=center;verticalAlign=middle;resizable=0;points=[];autosize=1;strokeColor=none;fillColor=none;" vertex="1" parent="w7ShJKdbrhDFuei-1GB7-1">
          <mxGeometry x="10" y="35" width="160" height="130" as="geometry" />
        </mxCell>
        <mxCell id="w7ShJKdbrhDFuei-1GB7-5" value="" style="endArrow=none;html=1;rounded=0;exitX=0;exitY=0.75;exitDx=0;exitDy=0;entryX=1;entryY=0.75;entryDx=0;entryDy=0;" edge="1" parent="w7ShJKdbrhDFuei-1GB7-1">
          <mxGeometry width="50" height="50" relative="1" as="geometry">
            <mxPoint y="160" as="sourcePoint" />
            <mxPoint x="200" y="160" as="targetPoint" />
          </mxGeometry>
        </mxCell>
        <mxCell id="w7ShJKdbrhDFuei-1GB7-6" value="&lt;div&gt;&lt;br&gt;&lt;/div&gt;&lt;font style=&quot;font-size: 14px;&quot;&gt;&lt;div style=&quot;text-align: left;&quot;&gt;&lt;span style=&quot;background-color: transparent; color: light-dark(rgb(0, 0, 0), rgb(255, 255, 255));&quot;&gt;registracija()&lt;/span&gt;&lt;/div&gt;&lt;/font&gt;&lt;div&gt;&lt;div style=&quot;text-align: left;&quot;&gt;&lt;span style=&quot;font-size: 14px; background-color: transparent; color: light-dark(rgb(0, 0, 0), rgb(255, 255, 255));&quot;&gt;prijava()&lt;/span&gt;&lt;/div&gt;&lt;div style=&quot;text-align: left;&quot;&gt;&lt;font style=&quot;font-size: 14px;&quot;&gt;odjava()&lt;/font&gt;&lt;/div&gt;&lt;div style=&quot;text-align: left;&quot;&gt;&lt;span style=&quot;font-size: 14px; background-color: transparent; color: light-dark(rgb(0, 0, 0), rgb(255, 255, 255));&quot;&gt;prijavaNaHodočašće()&lt;/span&gt;&lt;/div&gt;&lt;/div&gt;&lt;div style=&quot;text-align: left;&quot;&gt;&lt;font style=&quot;font-size: 14px;&quot;&gt;pregledObavijesti()&lt;/font&gt;&lt;/div&gt;" style="text;html=1;align=center;verticalAlign=middle;resizable=0;points=[];autosize=1;strokeColor=none;fillColor=none;" vertex="1" parent="w7ShJKdbrhDFuei-1GB7-1">
          <mxGeometry x="10" y="150" width="160" height="110" as="geometry" />
        </mxCell>
        <mxCell id="w7ShJKdbrhDFuei-1GB7-3" value="DJELATNIK" style="swimlane;whiteSpace=wrap;html=1;" vertex="1" parent="1">
          <mxGeometry x="590" y="420" width="200" height="240" as="geometry" />
        </mxCell>
        <mxCell id="w7ShJKdbrhDFuei-1GB7-4" value="&lt;font style=&quot;font-size: 14px;&quot;&gt;id: int&lt;/font&gt;&lt;div&gt;&lt;font style=&quot;font-size: 14px;&quot;&gt;ime: string&lt;/font&gt;&lt;/div&gt;&lt;div&gt;&lt;font style=&quot;font-size: 14px;&quot;&gt;prezime: string&lt;/font&gt;&lt;/div&gt;&lt;div&gt;&lt;font style=&quot;font-size: 14px;&quot;&gt;uloga: string&lt;/font&gt;&lt;/div&gt;&lt;div&gt;&lt;font style=&quot;font-size: 14px;&quot;&gt;kontakt: string&lt;/font&gt;&lt;/div&gt;&lt;div&gt;&lt;font style=&quot;font-size: 14px;&quot;&gt;datumZaposlenja: Date&lt;/font&gt;&lt;/div&gt;" style="text;html=1;align=left;verticalAlign=middle;resizable=0;points=[];autosize=1;strokeColor=none;fillColor=none;" vertex="1" parent="w7ShJKdbrhDFuei-1GB7-3">
          <mxGeometry x="10" y="35" width="170" height="110" as="geometry" />
        </mxCell>
        <mxCell id="w7ShJKdbrhDFuei-1GB7-8" value="&lt;div&gt;&lt;span style=&quot;font-size: 14px; background-color: transparent; color: light-dark(rgb(0, 0, 0), rgb(255, 255, 255));&quot;&gt;prijava()&lt;/span&gt;&lt;/div&gt;&lt;div&gt;&lt;font style=&quot;font-size: 14px;&quot;&gt;odjava()&lt;/font&gt;&lt;/div&gt;&lt;div&gt;&lt;font style=&quot;font-size: 14px;&quot;&gt;urediObavijest()&lt;/font&gt;&lt;/div&gt;&lt;div&gt;&lt;font style=&quot;font-size: 14px;&quot;&gt;upravljajHodocascima()&lt;/font&gt;&lt;/div&gt;&lt;div&gt;&lt;font style=&quot;font-size: 14px;&quot;&gt;provjeriPrijavu()&lt;/font&gt;&lt;/div&gt;" style="text;html=1;align=left;verticalAlign=middle;resizable=0;points=[];autosize=1;strokeColor=none;fillColor=none;" vertex="1" parent="w7ShJKdbrhDFuei-1GB7-3">
          <mxGeometry x="15" y="140" width="170" height="100" as="geometry" />
        </mxCell>
        <mxCell id="w7ShJKdbrhDFuei-1GB7-7" value="" style="endArrow=none;html=1;rounded=0;" edge="1" parent="w7ShJKdbrhDFuei-1GB7-3">
          <mxGeometry width="50" height="50" relative="1" as="geometry">
            <mxPoint y="145" as="sourcePoint" />
            <mxPoint x="200" y="145" as="targetPoint" />
          </mxGeometry>
        </mxCell>
        <mxCell id="w7ShJKdbrhDFuei-1GB7-9" value="HODOČAŠĆE" style="swimlane;whiteSpace=wrap;html=1;" vertex="1" parent="1">
          <mxGeometry x="10" y="418" width="200" height="250" as="geometry" />
        </mxCell>
        <mxCell id="w7ShJKdbrhDFuei-1GB7-10" value="&lt;font style=&quot;font-size: 14px;&quot;&gt;id: int&lt;/font&gt;&lt;div&gt;&lt;font style=&quot;font-size: 14px;&quot;&gt;naziv: string&lt;/font&gt;&lt;/div&gt;&lt;div&gt;&lt;font style=&quot;font-size: 14px;&quot;&gt;datumPolaska: Date&lt;/font&gt;&lt;/div&gt;&lt;div&gt;&lt;font style=&quot;font-size: 14px;&quot;&gt;datumPovratka: Date&lt;/font&gt;&lt;/div&gt;&lt;div&gt;&lt;font style=&quot;font-size: 14px;&quot;&gt;mjestoOdredista: string&lt;/font&gt;&lt;/div&gt;&lt;div&gt;&lt;font style=&quot;font-size: 14px;&quot;&gt;opis: string&lt;/font&gt;&lt;/div&gt;&lt;div&gt;&lt;font style=&quot;font-size: 14px;&quot;&gt;cijena: decimal&lt;/font&gt;&lt;/div&gt;&lt;div&gt;&lt;font style=&quot;font-size: 14px;&quot;&gt;maxBrojPutnika: int&lt;/font&gt;&lt;/div&gt;&lt;div&gt;&lt;font style=&quot;font-size: 14px;&quot;&gt;trenutniBrojPrijava: int&lt;/font&gt;&lt;/div&gt;" style="text;html=1;align=left;verticalAlign=middle;resizable=0;points=[];autosize=1;strokeColor=none;fillColor=none;" vertex="1" parent="w7ShJKdbrhDFuei-1GB7-9">
          <mxGeometry x="15" y="30" width="170" height="160" as="geometry" />
        </mxCell>
        <mxCell id="w7ShJKdbrhDFuei-1GB7-12" value="&lt;font style=&quot;font-size: 14px;&quot;&gt;dodajNovo()&lt;/font&gt;&lt;div&gt;&lt;font style=&quot;font-size: 14px;&quot;&gt;azuriraj()&lt;/font&gt;&lt;/div&gt;&lt;div&gt;&lt;font style=&quot;font-size: 14px;&quot;&gt;provjeriDostupnost()&lt;/font&gt;&lt;/div&gt;" style="text;html=1;align=left;verticalAlign=middle;resizable=0;points=[];autosize=1;strokeColor=none;fillColor=none;" vertex="1" parent="w7ShJKdbrhDFuei-1GB7-9">
          <mxGeometry x="15" y="190" width="150" height="60" as="geometry" />
        </mxCell>
        <mxCell id="w7ShJKdbrhDFuei-1GB7-11" value="" style="endArrow=none;html=1;rounded=0;exitX=0;exitY=0.75;exitDx=0;exitDy=0;entryX=1;entryY=0.75;entryDx=0;entryDy=0;" edge="1" parent="w7ShJKdbrhDFuei-1GB7-9">
          <mxGeometry width="50" height="50" relative="1" as="geometry">
            <mxPoint y="190" as="sourcePoint" />
            <mxPoint x="200" y="190" as="targetPoint" />
          </mxGeometry>
        </mxCell>
        <mxCell id="w7ShJKdbrhDFuei-1GB7-13" value="OBAVIJEST" style="swimlane;whiteSpace=wrap;html=1;" vertex="1" parent="1">
          <mxGeometry x="300" y="420" width="200" height="200" as="geometry" />
        </mxCell>
        <mxCell id="w7ShJKdbrhDFuei-1GB7-14" value="&lt;font style=&quot;font-size: 14px;&quot;&gt;id: int&lt;/font&gt;&lt;div&gt;&lt;font style=&quot;font-size: 14px;&quot;&gt;naslov: string&lt;/font&gt;&lt;/div&gt;&lt;div&gt;&lt;font style=&quot;font-size: 14px;&quot;&gt;sadrzaj: string&lt;/font&gt;&lt;/div&gt;&lt;div&gt;&lt;font style=&quot;font-size: 14px;&quot;&gt;datum: Date&lt;/font&gt;&lt;/div&gt;&lt;div&gt;&lt;font style=&quot;font-size: 14px;&quot;&gt;autorId: int&lt;/font&gt;&lt;/div&gt;&lt;div&gt;&lt;font style=&quot;font-size: 14px;&quot;&gt;kategorija: int&lt;/font&gt;&lt;/div&gt;" style="text;html=1;align=left;verticalAlign=middle;resizable=0;points=[];autosize=1;strokeColor=none;fillColor=none;" vertex="1" parent="w7ShJKdbrhDFuei-1GB7-13">
          <mxGeometry x="25" y="25" width="110" height="110" as="geometry" />
        </mxCell>
        <mxCell id="w7ShJKdbrhDFuei-1GB7-15" value="" style="endArrow=none;html=1;rounded=0;exitX=0;exitY=0.75;exitDx=0;exitDy=0;entryX=1;entryY=0.75;entryDx=0;entryDy=0;" edge="1" parent="w7ShJKdbrhDFuei-1GB7-13">
          <mxGeometry width="50" height="50" relative="1" as="geometry">
            <mxPoint y="135" as="sourcePoint" />
            <mxPoint x="200" y="135" as="targetPoint" />
          </mxGeometry>
        </mxCell>
        <mxCell id="w7ShJKdbrhDFuei-1GB7-16" value="&lt;font style=&quot;font-size: 14px;&quot;&gt;objavi()&lt;/font&gt;&lt;div&gt;&lt;font style=&quot;font-size: 14px;&quot;&gt;uredi()&lt;/font&gt;&lt;/div&gt;&lt;div&gt;&lt;font style=&quot;font-size: 14px;&quot;&gt;arhiviraj()&lt;/font&gt;&lt;/div&gt;" style="text;html=1;align=left;verticalAlign=middle;resizable=0;points=[];autosize=1;strokeColor=none;fillColor=none;" vertex="1" parent="w7ShJKdbrhDFuei-1GB7-13">
          <mxGeometry x="25" y="135" width="80" height="60" as="geometry" />
        </mxCell>
        <mxCell id="w7ShJKdbrhDFuei-1GB7-17" value="PRIJAVA_HODOČAŠĆA" style="swimlane;whiteSpace=wrap;html=1;" vertex="1" parent="1">
          <mxGeometry x="20" y="60" width="200" height="220" as="geometry" />
        </mxCell>
        <mxCell id="w7ShJKdbrhDFuei-1GB7-18" value="&lt;font style=&quot;font-size: 14px;&quot;&gt;id: int&lt;/font&gt;&lt;div&gt;&lt;font style=&quot;font-size: 14px;&quot;&gt;hodocasceId: int&lt;/font&gt;&lt;/div&gt;&lt;div&gt;&lt;font style=&quot;font-size: 14px;&quot;&gt;vjernikId: int&lt;/font&gt;&lt;/div&gt;&lt;div&gt;&lt;font style=&quot;font-size: 14px;&quot;&gt;datumPrijave: Date&lt;/font&gt;&lt;/div&gt;&lt;div&gt;&lt;font style=&quot;font-size: 14px;&quot;&gt;status: enum&lt;/font&gt;&lt;/div&gt;&lt;div&gt;&lt;font style=&quot;font-size: 14px;&quot;&gt;brojPutnika: int&lt;/font&gt;&lt;/div&gt;&lt;div&gt;&lt;font style=&quot;font-size: 14px;&quot;&gt;kontaktTelefon: string&lt;/font&gt;&lt;/div&gt;" style="text;html=1;align=left;verticalAlign=middle;resizable=0;points=[];autosize=1;strokeColor=none;fillColor=none;" vertex="1" parent="w7ShJKdbrhDFuei-1GB7-17">
          <mxGeometry x="15" y="30" width="160" height="130" as="geometry" />
        </mxCell>
        <mxCell id="w7ShJKdbrhDFuei-1GB7-20" value="&lt;font style=&quot;font-size: 14px;&quot;&gt;potvrdiPrijavu()&lt;/font&gt;&lt;div&gt;&lt;font style=&quot;font-size: 14px;&quot;&gt;otkaziPrijavu()&lt;/font&gt;&lt;/div&gt;&lt;div&gt;&lt;font style=&quot;font-size: 14px;&quot;&gt;generirajPotvrdu()&lt;/font&gt;&lt;/div&gt;" style="text;html=1;align=left;verticalAlign=middle;resizable=0;points=[];autosize=1;strokeColor=none;fillColor=none;" vertex="1" parent="w7ShJKdbrhDFuei-1GB7-17">
          <mxGeometry x="15" y="160" width="140" height="60" as="geometry" />
        </mxCell>
        <mxCell id="w7ShJKdbrhDFuei-1GB7-21" value="" style="endArrow=none;html=1;rounded=0;exitX=0;exitY=0.75;exitDx=0;exitDy=0;entryX=1;entryY=0.75;entryDx=0;entryDy=0;" edge="1" parent="w7ShJKdbrhDFuei-1GB7-17">
          <mxGeometry width="50" height="50" relative="1" as="geometry">
            <mxPoint y="160" as="sourcePoint" />
            <mxPoint x="200" y="160" as="targetPoint" />
          </mxGeometry>
        </mxCell>
        <mxCell id="w7ShJKdbrhDFuei-1GB7-22" value="ADMINISTRATOR" style="swimlane;whiteSpace=wrap;html=1;" vertex="1" parent="1">
          <mxGeometry x="590" y="60" width="200" height="200" as="geometry" />
        </mxCell>
        <mxCell id="w7ShJKdbrhDFuei-1GB7-23" value="&lt;font style=&quot;font-size: 14px;&quot;&gt;id: int&lt;/font&gt;&lt;div&gt;&lt;font style=&quot;font-size: 14px;&quot;&gt;ime: string&lt;/font&gt;&lt;/div&gt;&lt;div&gt;&lt;font style=&quot;font-size: 14px;&quot;&gt;prezime: string&lt;/font&gt;&lt;/div&gt;&lt;div&gt;&lt;br&gt;&lt;/div&gt;" style="text;html=1;align=left;verticalAlign=middle;resizable=0;points=[];autosize=1;strokeColor=none;fillColor=none;" vertex="1" parent="w7ShJKdbrhDFuei-1GB7-22">
          <mxGeometry x="15" y="30" width="120" height="80" as="geometry" />
        </mxCell>
        <mxCell id="w7ShJKdbrhDFuei-1GB7-25" value="&lt;font style=&quot;font-size: 14px;&quot;&gt;upravljajKorisnicima()&lt;/font&gt;&lt;div&gt;&lt;font style=&quot;font-size: 14px;&quot;&gt;upravljajDjelatnicima()&lt;/font&gt;&lt;/div&gt;&lt;div&gt;&lt;font style=&quot;font-size: 14px;&quot;&gt;upravljajSustavom()&lt;/font&gt;&lt;/div&gt;&lt;div&gt;&lt;font style=&quot;font-size: 14px;&quot;&gt;upravljajObavijestima()&lt;/font&gt;&lt;/div&gt;&lt;div&gt;&lt;font style=&quot;font-size: 14px;&quot;&gt;upravljajHodocascima()&lt;/font&gt;&lt;/div&gt;" style="text;html=1;align=left;verticalAlign=middle;resizable=0;points=[];autosize=1;strokeColor=none;fillColor=none;" vertex="1" parent="w7ShJKdbrhDFuei-1GB7-22">
          <mxGeometry x="15" y="95" width="170" height="100" as="geometry" />
        </mxCell>
        <mxCell id="w7ShJKdbrhDFuei-1GB7-24" value="" style="endArrow=none;html=1;rounded=0;exitX=0;exitY=0.5;exitDx=0;exitDy=0;entryX=1;entryY=0.5;entryDx=0;entryDy=0;" edge="1" parent="1" source="w7ShJKdbrhDFuei-1GB7-22" target="w7ShJKdbrhDFuei-1GB7-22">
          <mxGeometry width="50" height="50" relative="1" as="geometry">
            <mxPoint x="810" y="190" as="sourcePoint" />
            <mxPoint x="860" y="140" as="targetPoint" />
          </mxGeometry>
        </mxCell>
        <mxCell id="w7ShJKdbrhDFuei-1GB7-27" value="" style="endArrow=none;html=1;rounded=0;exitX=1;exitY=0.25;exitDx=0;exitDy=0;" edge="1" parent="1" source="w7ShJKdbrhDFuei-1GB7-1">
          <mxGeometry width="50" height="50" relative="1" as="geometry">
            <mxPoint x="470" y="220" as="sourcePoint" />
            <mxPoint x="590" y="125" as="targetPoint" />
          </mxGeometry>
        </mxCell>
        <mxCell id="w7ShJKdbrhDFuei-1GB7-28" value="&lt;font style=&quot;font-size: 15px;&quot;&gt;*&lt;/font&gt;" style="text;html=1;align=center;verticalAlign=middle;resizable=0;points=[];autosize=1;strokeColor=none;fillColor=none;" vertex="1" parent="1">
          <mxGeometry x="480" y="100" width="30" height="30" as="geometry" />
        </mxCell>
        <mxCell id="w7ShJKdbrhDFuei-1GB7-29" value="&lt;font style=&quot;font-size: 15px;&quot;&gt;1&lt;/font&gt;" style="text;html=1;align=center;verticalAlign=middle;resizable=0;points=[];autosize=1;strokeColor=none;fillColor=none;" vertex="1" parent="1">
          <mxGeometry x="555" y="98" width="30" height="30" as="geometry" />
        </mxCell>
        <mxCell id="w7ShJKdbrhDFuei-1GB7-30" value="" style="endArrow=none;html=1;rounded=0;exitX=0.5;exitY=1;exitDx=0;exitDy=0;" edge="1" parent="1" source="w7ShJKdbrhDFuei-1GB7-22" target="w7ShJKdbrhDFuei-1GB7-3">
          <mxGeometry width="50" height="50" relative="1" as="geometry">
            <mxPoint x="940" y="470" as="sourcePoint" />
            <mxPoint x="990" y="420" as="targetPoint" />
          </mxGeometry>
        </mxCell>
        <mxCell id="w7ShJKdbrhDFuei-1GB7-31" value="&lt;font style=&quot;font-size: 15px;&quot;&gt;1&lt;/font&gt;" style="text;html=1;align=center;verticalAlign=middle;resizable=0;points=[];autosize=1;strokeColor=none;fillColor=none;" vertex="1" parent="1">
          <mxGeometry x="685" y="258" width="30" height="30" as="geometry" />
        </mxCell>
        <mxCell id="w7ShJKdbrhDFuei-1GB7-32" value="&lt;font style=&quot;font-size: 15px;&quot;&gt;*&lt;/font&gt;" style="text;html=1;align=center;verticalAlign=middle;resizable=0;points=[];autosize=1;strokeColor=none;fillColor=none;" vertex="1" parent="1">
          <mxGeometry x="685" y="390" width="30" height="30" as="geometry" />
        </mxCell>
        <mxCell id="w7ShJKdbrhDFuei-1GB7-33" value="" style="endArrow=none;html=1;rounded=0;exitX=1;exitY=0.25;exitDx=0;exitDy=0;" edge="1" parent="1" source="w7ShJKdbrhDFuei-1GB7-13">
          <mxGeometry width="50" height="50" relative="1" as="geometry">
            <mxPoint x="410" y="460" as="sourcePoint" />
            <mxPoint x="500" y="250" as="targetPoint" />
          </mxGeometry>
        </mxCell>
        <mxCell id="w7ShJKdbrhDFuei-1GB7-34" value="" style="endArrow=none;html=1;rounded=0;" edge="1" parent="1">
          <mxGeometry width="50" height="50" relative="1" as="geometry">
            <mxPoint x="590" y="250" as="sourcePoint" />
            <mxPoint x="500" y="250" as="targetPoint" />
          </mxGeometry>
        </mxCell>
        <mxCell id="w7ShJKdbrhDFuei-1GB7-35" value="&lt;font style=&quot;font-size: 15px;&quot;&gt;0&lt;/font&gt;" style="edgeLabel;html=1;align=center;verticalAlign=middle;resizable=0;points=[];" vertex="1" connectable="0" parent="w7ShJKdbrhDFuei-1GB7-34">
          <mxGeometry x="-0.6444" y="-3" relative="1" as="geometry">
            <mxPoint y="-17" as="offset" />
          </mxGeometry>
        </mxCell>
        <mxCell id="w7ShJKdbrhDFuei-1GB7-36" value="&lt;font style=&quot;font-size: 15px;&quot;&gt;*&lt;/font&gt;" style="text;html=1;align=center;verticalAlign=middle;resizable=0;points=[];autosize=1;strokeColor=none;fillColor=none;" vertex="1" parent="1">
          <mxGeometry x="475" y="388" width="30" height="30" as="geometry" />
        </mxCell>
        <mxCell id="w7ShJKdbrhDFuei-1GB7-37" value="" style="endArrow=none;html=1;rounded=0;exitX=0.5;exitY=0;exitDx=0;exitDy=0;" edge="1" parent="1" source="w7ShJKdbrhDFuei-1GB7-9">
          <mxGeometry width="50" height="50" relative="1" as="geometry">
            <mxPoint x="460" y="370" as="sourcePoint" />
            <mxPoint x="110" y="370" as="targetPoint" />
          </mxGeometry>
        </mxCell>
        <mxCell id="w7ShJKdbrhDFuei-1GB7-38" value="" style="endArrow=none;html=1;rounded=0;" edge="1" parent="1">
          <mxGeometry width="50" height="50" relative="1" as="geometry">
            <mxPoint x="110" y="370" as="sourcePoint" />
            <mxPoint x="610" y="370" as="targetPoint" />
          </mxGeometry>
        </mxCell>
        <mxCell id="w7ShJKdbrhDFuei-1GB7-39" value="" style="endArrow=none;html=1;rounded=0;" edge="1" parent="1">
          <mxGeometry width="50" height="50" relative="1" as="geometry">
            <mxPoint x="610" y="370" as="sourcePoint" />
            <mxPoint x="610" y="260" as="targetPoint" />
          </mxGeometry>
        </mxCell>
        <mxCell id="w7ShJKdbrhDFuei-1GB7-41" value="&lt;font style=&quot;font-size: 15px;&quot;&gt;0&lt;/font&gt;" style="text;html=1;align=center;verticalAlign=middle;resizable=0;points=[];autosize=1;strokeColor=none;fillColor=none;" vertex="1" parent="1">
          <mxGeometry x="605" y="258" width="30" height="30" as="geometry" />
        </mxCell>
        <mxCell id="w7ShJKdbrhDFuei-1GB7-43" value="&lt;font style=&quot;font-size: 15px;&quot;&gt;*&lt;/font&gt;" style="text;html=1;align=center;verticalAlign=middle;resizable=0;points=[];autosize=1;strokeColor=none;fillColor=none;" vertex="1" parent="1">
          <mxGeometry x="105" y="388" width="30" height="30" as="geometry" />
        </mxCell>
        <mxCell id="w7ShJKdbrhDFuei-1GB7-44" value="" style="endArrow=none;html=1;rounded=0;exitX=0;exitY=0.25;exitDx=0;exitDy=0;" edge="1" parent="1" source="w7ShJKdbrhDFuei-1GB7-1">
          <mxGeometry width="50" height="50" relative="1" as="geometry">
            <mxPoint x="490" y="370" as="sourcePoint" />
            <mxPoint x="220" y="125" as="targetPoint" />
          </mxGeometry>
        </mxCell>
        <mxCell id="w7ShJKdbrhDFuei-1GB7-46" value="&lt;font style=&quot;font-size: 15px;&quot;&gt;1&lt;/font&gt;" style="text;html=1;align=center;verticalAlign=middle;resizable=0;points=[];autosize=1;strokeColor=none;fillColor=none;" vertex="1" parent="1">
          <mxGeometry x="250" y="98" width="30" height="30" as="geometry" />
        </mxCell>
        <mxCell id="w7ShJKdbrhDFuei-1GB7-47" value="&lt;font style=&quot;font-size: 15px;&quot;&gt;*&lt;/font&gt;" style="text;html=1;align=center;verticalAlign=middle;resizable=0;points=[];autosize=1;strokeColor=none;fillColor=none;" vertex="1" parent="1">
          <mxGeometry x="215" y="98" width="30" height="30" as="geometry" />
        </mxCell>
        <mxCell id="w7ShJKdbrhDFuei-1GB7-48" value="" style="endArrow=none;html=1;rounded=0;exitX=0.25;exitY=0;exitDx=0;exitDy=0;" edge="1" parent="1" source="w7ShJKdbrhDFuei-1GB7-3">
          <mxGeometry width="50" height="50" relative="1" as="geometry">
            <mxPoint x="520" y="370" as="sourcePoint" />
            <mxPoint x="640" y="310" as="targetPoint" />
          </mxGeometry>
        </mxCell>
        <mxCell id="w7ShJKdbrhDFuei-1GB7-49" value="" style="endArrow=none;html=1;rounded=0;" edge="1" parent="1">
          <mxGeometry width="50" height="50" relative="1" as="geometry">
            <mxPoint x="480" y="310" as="sourcePoint" />
            <mxPoint x="640" y="310" as="targetPoint" />
          </mxGeometry>
        </mxCell>
        <mxCell id="w7ShJKdbrhDFuei-1GB7-50" value="&lt;font style=&quot;font-size: 15px;&quot;&gt;*&lt;/font&gt;" style="text;html=1;align=center;verticalAlign=middle;resizable=0;points=[];autosize=1;strokeColor=none;fillColor=none;" vertex="1" parent="1">
          <mxGeometry x="475" y="288" width="30" height="30" as="geometry" />
        </mxCell>
        <mxCell id="w7ShJKdbrhDFuei-1GB7-51" value="&lt;font style=&quot;font-size: 15px;&quot;&gt;1&lt;/font&gt;" style="text;html=1;align=center;verticalAlign=middle;resizable=0;points=[];autosize=1;strokeColor=none;fillColor=none;" vertex="1" parent="1">
          <mxGeometry x="635" y="388" width="30" height="30" as="geometry" />
        </mxCell>
        <mxCell id="w7ShJKdbrhDFuei-1GB7-52" value="" style="endArrow=none;html=1;rounded=0;exitX=0;exitY=0.25;exitDx=0;exitDy=0;" edge="1" parent="1" source="w7ShJKdbrhDFuei-1GB7-3">
          <mxGeometry width="50" height="50" relative="1" as="geometry">
            <mxPoint x="580" y="360" as="sourcePoint" />
            <mxPoint x="500" y="478" as="targetPoint" />
          </mxGeometry>
        </mxCell>
        <mxCell id="w7ShJKdbrhDFuei-1GB7-53" value="&lt;font style=&quot;font-size: 15px;&quot;&gt;1&lt;/font&gt;" style="text;html=1;align=center;verticalAlign=middle;resizable=0;points=[];autosize=1;strokeColor=none;fillColor=none;" vertex="1" parent="1">
          <mxGeometry x="565" y="448" width="30" height="30" as="geometry" />
        </mxCell>
        <mxCell id="w7ShJKdbrhDFuei-1GB7-54" value="&lt;font style=&quot;font-size: 15px;&quot;&gt;*&lt;/font&gt;" style="text;html=1;align=center;verticalAlign=middle;resizable=0;points=[];autosize=1;strokeColor=none;fillColor=none;" vertex="1" parent="1">
          <mxGeometry x="505" y="448" width="30" height="30" as="geometry" />
        </mxCell>
        <mxCell id="w7ShJKdbrhDFuei-1GB7-55" value="" style="endArrow=none;html=1;rounded=0;" edge="1" parent="1">
          <mxGeometry width="50" height="50" relative="1" as="geometry">
            <mxPoint x="590" y="630" as="sourcePoint" />
            <mxPoint x="210" y="630" as="targetPoint" />
          </mxGeometry>
        </mxCell>
        <mxCell id="w7ShJKdbrhDFuei-1GB7-56" value="&lt;font style=&quot;font-size: 15px;&quot;&gt;1&lt;/font&gt;" style="text;html=1;align=center;verticalAlign=middle;resizable=0;points=[];autosize=1;strokeColor=none;fillColor=none;" vertex="1" parent="1">
          <mxGeometry x="545" y="598" width="30" height="30" as="geometry" />
        </mxCell>
        <mxCell id="w7ShJKdbrhDFuei-1GB7-57" value="&lt;font style=&quot;font-size: 15px;&quot;&gt;*&lt;/font&gt;" style="text;html=1;align=center;verticalAlign=middle;resizable=0;points=[];autosize=1;strokeColor=none;fillColor=none;" vertex="1" parent="1">
          <mxGeometry x="215" y="598" width="30" height="30" as="geometry" />
        </mxCell>
        <mxCell id="w7ShJKdbrhDFuei-1GB7-58" value="" style="endArrow=none;html=1;rounded=0;exitX=0.25;exitY=0;exitDx=0;exitDy=0;" edge="1" parent="1" source="w7ShJKdbrhDFuei-1GB7-9">
          <mxGeometry width="50" height="50" relative="1" as="geometry">
            <mxPoint x="380" y="470" as="sourcePoint" />
            <mxPoint x="61" y="280" as="targetPoint" />
          </mxGeometry>
        </mxCell>
        <mxCell id="w7ShJKdbrhDFuei-1GB7-59" value="&lt;font style=&quot;font-size: 15px;&quot;&gt;1&lt;/font&gt;" style="text;html=1;align=center;verticalAlign=middle;resizable=0;points=[];autosize=1;strokeColor=none;fillColor=none;" vertex="1" parent="1">
          <mxGeometry x="55" y="388" width="30" height="30" as="geometry" />
        </mxCell>
        <mxCell id="w7ShJKdbrhDFuei-1GB7-60" value="&lt;font style=&quot;font-size: 15px;&quot;&gt;*&lt;/font&gt;" style="text;html=1;align=center;verticalAlign=middle;resizable=0;points=[];autosize=1;strokeColor=none;fillColor=none;" vertex="1" parent="1">
          <mxGeometry x="55" y="278" width="30" height="30" as="geometry" />
        </mxCell>
        <mxCell id="w7ShJKdbrhDFuei-1GB7-61" value="" style="endArrow=none;html=1;rounded=0;exitX=0.441;exitY=1.002;exitDx=0;exitDy=0;exitPerimeter=0;" edge="1" parent="1" source="w7ShJKdbrhDFuei-1GB7-6">
          <mxGeometry width="50" height="50" relative="1" as="geometry">
            <mxPoint x="490" y="410" as="sourcePoint" />
            <mxPoint x="360" y="420" as="targetPoint" />
          </mxGeometry>
        </mxCell>
        <mxCell id="w7ShJKdbrhDFuei-1GB7-62" value="&lt;font style=&quot;font-size: 15px;&quot;&gt;1&lt;/font&gt;" style="text;html=1;align=center;verticalAlign=middle;resizable=0;points=[];autosize=1;strokeColor=none;fillColor=none;" vertex="1" parent="1">
          <mxGeometry x="355" y="320" width="30" height="30" as="geometry" />
        </mxCell>
        <mxCell id="w7ShJKdbrhDFuei-1GB7-63" value="&lt;font style=&quot;font-size: 15px;&quot;&gt;*&lt;/font&gt;" style="text;html=1;align=center;verticalAlign=middle;resizable=0;points=[];autosize=1;strokeColor=none;fillColor=none;" vertex="1" parent="1">
          <mxGeometry x="355" y="388" width="30" height="30" as="geometry" />
        </mxCell>
        <mxCell id="w7ShJKdbrhDFuei-1GB7-64" value="" style="endArrow=none;html=1;rounded=0;exitX=0;exitY=0;exitDx=0;exitDy=0;" edge="1" parent="1" source="w7ShJKdbrhDFuei-1GB7-3">
          <mxGeometry width="50" height="50" relative="1" as="geometry">
            <mxPoint x="620" y="410" as="sourcePoint" />
            <mxPoint x="590" y="360" as="targetPoint" />
          </mxGeometry>
        </mxCell>
        <mxCell id="w7ShJKdbrhDFuei-1GB7-67" value="&lt;font style=&quot;font-size: 15px;&quot;&gt;1&lt;/font&gt;" style="edgeLabel;html=1;align=center;verticalAlign=middle;resizable=0;points=[];" vertex="1" connectable="0" parent="w7ShJKdbrhDFuei-1GB7-64">
          <mxGeometry x="-0.2533" y="-3" relative="1" as="geometry">
            <mxPoint x="2" y="7" as="offset" />
          </mxGeometry>
        </mxCell>
        <mxCell id="w7ShJKdbrhDFuei-1GB7-65" value="" style="endArrow=none;html=1;rounded=0;" edge="1" parent="1">
          <mxGeometry width="50" height="50" relative="1" as="geometry">
            <mxPoint x="170" y="360" as="sourcePoint" />
            <mxPoint x="590" y="360" as="targetPoint" />
          </mxGeometry>
        </mxCell>
        <mxCell id="w7ShJKdbrhDFuei-1GB7-66" value="" style="endArrow=none;html=1;rounded=0;exitX=0.971;exitY=1.043;exitDx=0;exitDy=0;exitPerimeter=0;" edge="1" parent="1" source="w7ShJKdbrhDFuei-1GB7-20">
          <mxGeometry width="50" height="50" relative="1" as="geometry">
            <mxPoint x="620" y="410" as="sourcePoint" />
            <mxPoint x="170" y="360" as="targetPoint" />
          </mxGeometry>
        </mxCell>
        <mxCell id="w7ShJKdbrhDFuei-1GB7-68" value="&lt;font style=&quot;font-size: 15px;&quot;&gt;*&lt;/font&gt;" style="text;html=1;align=center;verticalAlign=middle;resizable=0;points=[];autosize=1;strokeColor=none;fillColor=none;" vertex="1" parent="1">
          <mxGeometry x="165" y="278" width="30" height="30" as="geometry" />
        </mxCell>
      </root>
    </mxGraphModel>
  </diagram>
</mxfile>
